<svg xmlns="http://www.w3.org/2000/svg" width="25" height="25.027" viewBox="0 0 25 25.027">
  <path id="_165-leaf" data-name="165-leaf" d="M24.713,3.285A19.062,19.062,0,0,0,13.566.008C8.282.008,3.975,1.853,1.754,5.07A10.026,10.026,0,0,0,.037,10.387a17.061,17.061,0,0,0,.9,5.921C3.253,9.354,9.731,3.91,17.2,3.91A23.553,23.553,0,0,0,5.817,11.446s-.061.075-.161.213A16.484,16.484,0,0,0,3.429,15.7a24.077,24.077,0,0,0-1.878,9.334h3.13a18.252,18.252,0,0,1,.351-6.425,27.711,27.711,0,0,0,3.688.277c2.878,0,4.923-.623,6.439-1.959a12.941,12.941,0,0,0,2.9-4.51c1.211-2.6,2.583-5.55,6.569-7.827a.783.783,0,0,0,.084-1.3Z" transform="translate(-0.023 -0.008)"/>
</svg>
