<svg xmlns="http://www.w3.org/2000/svg" width="20.155" height="25.03" viewBox="0 0 20.155 25.03">
  <path id="XMLID_1525_" d="M19.077,5.965A.919.919,0,0,0,18.4,5.72H10.253C9.708,5.72,9,6.046,9,6.564V23.8a1.474,1.474,0,0,0,1.253,1.226h12.91c.545,0,.817-.708.817-1.226V11.385a.836.836,0,0,0-.218-.654Zm2.7,5.474H18.26V7.926ZM11.179,22.878V7.626h5.175v4.685a1.071,1.071,0,0,0,1.035,1.035h4.685v9.533ZM28.991,4.9,24.252.163A.765.765,0,0,0,23.708,0H15.564c-.463,0-.844.245-.844.681V3.3a.8.8,0,0,0,.817.817.819.819,0,0,0,.817-.817V1.634h5.72v4.6a.849.849,0,0,0,.844.844h4.6V17.159H26.4a.8.8,0,0,0-.817.817.819.819,0,0,0,.817.817h2.07c.463,0,.681-.409.681-.872V5.5A.909.909,0,0,0,28.991,4.9Zm-5.284-3,3.513,3.541H23.708Z" transform="translate(-9)"/>
</svg>
