<svg xmlns="http://www.w3.org/2000/svg" width="190" height="86.21" viewBox="0 0 190 86.21">
  <g id="Group_201" data-name="Group 201" transform="translate(-1186 -779.79)">
    <text id="paste_seed_phrase_here" data-name="paste seed phrase here" transform="translate(1281 862)" fill="#9c9c9c" font-size="18" font-family="HelveticaNeue, Helvetica Neue"><tspan x="-94.356" y="0">paste seed phrase here</tspan></text>
    <g id="_643f5992ccc273d56185845c903dbeea" data-name="643f5992ccc273d56185845c903dbeea" transform="translate(1230.007 660.231)" opacity="0.174">
      <path id="Path_460" data-name="Path 460" d="M42.286,141.81c4.3-2.709,10.464-3.488,16.636-1.622,8.662,2.626,14.448,9.563,14.107,16.347-.142,1.815-2.606,1.989-5.335,1.583-5.245-.785-8.212-2.471-12.652-5.078a29.817,29.817,0,0,0-11.34-4.428c-1.989-.283-3.083,1.313-1.017,2,6.178,2.059,9.209,4.872,13.5,7.008a28.153,28.153,0,0,0,8.791,2.639c1.577.219,3.636.161,4.962.425,1.242.245,1.841.779.792,2.085-3.849,5.065-11.957,7.182-20.073,4.724-7.169-2.175-12.363-7.317-13.747-12.865a11.463,11.463,0,0,1,5.374-12.82Zm-4.653.5a19.61,19.61,0,0,0-14.834-.579c-8.07,2.709-13.3,9.415-12.794,15.787.187,1.705,2.516,1.8,5.058,1.339,4.917-.895,7.652-2.568,11.758-5.142a33.609,33.609,0,0,1,7.208-3.649,13.787,13.787,0,0,1,3.6-7.755ZM34.01,153.059c-3.1,1.68-5.309,3.495-8.128,5a26.459,26.459,0,0,1-8.205,2.729c-1.48.251-3.417.251-4.659.541-1.158.264-1.7.785-.682,1.982,3.771,4.659,11.462,6.41,19.024,3.861a21.727,21.727,0,0,0,7.311-4.132,17.893,17.893,0,0,1-4.273-7.787,13.194,13.194,0,0,1-.386-2.195Zm17.157-16.475a21.322,21.322,0,0,0-4.2-9.2c-5.226-6.725-13.283-9.448-19.127-6.867-1.551.74-.862,2.967.412,5.219,2.465,4.344,4.943,6.378,8.727,9.409a39.719,39.719,0,0,1,4.537,4.087,20.864,20.864,0,0,1,9.647-2.651Zm-13.862,2.9c-1.628-1.268-3.2-2.394-4.737-3.8a26.4,26.4,0,0,1-5.284-6.841c-.727-1.313-1.371-3.141-2.047-4.215-.637-1-1.3-1.345-2.1.006-2.394,3.868-2.458,9.325-.2,14.487A22.4,22.4,0,0,1,37.305,139.486Z" transform="translate(4)"/>
    </g>
  </g>
</svg>
